<?xml version="1.0" encoding="utf-8"?>
<!-- Generator: Adobe Illustrator 27.5.0, SVG Export Plug-In . SVG Version: 6.00 Build 0)  -->
<svg version="1.1" xmlns="http://www.w3.org/2000/svg" xmlns:xlink="http://www.w3.org/1999/xlink" x="0px" y="0px"
	 viewBox="0 0 650 500" style="enable-background:new 0 0 650 500;" xml:space="preserve">
<g id="BACKGROUND">
	<rect style="fill:#373A6D;" width="650" height="500"/>
</g>
<g id="OBJECTS">
	<g style="opacity:0.5;">
		<g>
			<path style="fill:#262A4C;" d="M214.215,136.284c-1.752-8.659-5.165-16.713-9.883-23.827l6.707-8.606l-17.156-17.156
				l-8.606,6.706c-7.114-4.718-15.168-8.131-23.827-9.883l-1.342-10.813h-24.262l-1.342,10.813
				c-8.659,1.752-16.713,5.165-23.827,9.883l-8.606-6.706l-17.156,17.156l6.706,8.606c-4.718,7.114-8.131,15.168-9.883,23.827
				l-10.813,1.342v24.262l10.813,1.342c1.752,8.659,5.165,16.713,9.883,23.827l-6.706,8.606l17.156,17.156l8.606-6.706
				c7.114,4.718,15.168,8.131,23.827,9.883l1.342,10.813h24.262l1.342-10.813c8.659-1.752,16.713-5.165,23.827-9.883l8.606,6.706
				l17.156-17.156l-6.707-8.606c4.718-7.114,8.131-15.167,9.883-23.827l10.813-1.342v-24.262L214.215,136.284z M147.099,208.18
				c-32.371,0-58.613-26.242-58.613-58.613c0-32.371,26.242-58.613,58.613-58.613s58.613,26.242,58.613,58.613
				C205.713,181.938,179.47,208.18,147.099,208.18z"/>
			
				<ellipse transform="matrix(0.9966 -0.0819 0.0819 0.9966 -11.7575 12.5524)" style="fill:#262A4C;" cx="147.099" cy="149.567" rx="41.81" ry="41.81"/>
		</g>
		<path style="fill:#262A4C;" d="M564.282,346.501c1.587-7.568,1.629-15.224,0.297-22.576l8.369-4.599l-7.858-19.729l-9.239,2.414
			c-4.087-6.254-9.382-11.785-15.737-16.189l2.662-9.158l-19.507-8.394l-4.82,8.23c-7.568-1.587-15.224-1.629-22.575-0.297
			l-4.599-8.369l-19.728,7.858l2.414,9.239c-6.254,4.087-11.785,9.382-16.189,15.737l-9.158-2.662l-8.394,19.507l8.23,4.82
			c-1.587,7.568-1.629,15.224-0.297,22.575l-8.369,4.599l7.858,19.728l9.24-2.414c4.087,6.254,9.382,11.785,15.737,16.189
			l-2.662,9.158l19.507,8.394l4.82-8.23c7.568,1.587,15.224,1.629,22.575,0.297l4.599,8.369l19.728-7.858l-2.414-9.239
			c6.254-4.087,11.785-9.381,16.189-15.737l9.158,2.662l8.394-19.507L564.282,346.501z M488.049,375.046
			c-22.69-9.763-33.169-36.072-23.405-58.762c9.763-22.69,36.072-33.169,58.762-23.406c22.69,9.763,33.169,36.072,23.406,58.762
			C537.047,374.33,510.739,384.809,488.049,375.046z"/>
		<path style="fill:#262A4C;" d="M567.633,233.628c0.583-2.781,0.599-5.594,0.109-8.296l3.075-1.69l-2.888-7.25l-3.395,0.887
			c-1.502-2.298-3.447-4.33-5.783-5.949l0.978-3.365l-7.168-3.084l-1.771,3.024c-2.781-0.583-5.594-0.599-8.296-0.109l-1.69-3.075
			l-7.25,2.888l0.887,3.395c-2.298,1.502-4.331,3.447-5.949,5.783l-3.365-0.978l-3.084,7.168l3.024,1.771
			c-0.583,2.781-0.599,5.594-0.109,8.296l-3.075,1.69l2.888,7.249l3.395-0.887c1.502,2.298,3.447,4.33,5.783,5.949l-0.978,3.365
			l7.168,3.084l1.771-3.024c2.781,0.583,5.594,0.599,8.296,0.109l1.69,3.075l7.25-2.887l-0.887-3.395
			c2.298-1.502,4.33-3.447,5.949-5.783l3.365,0.978l3.084-7.168L567.633,233.628z M539.62,244.117
			c-8.338-3.588-12.188-13.255-8.601-21.593c3.588-8.338,13.255-12.188,21.593-8.601c8.338,3.588,12.188,13.255,8.601,21.593
			C557.625,243.855,547.957,247.705,539.62,244.117z"/>
	</g>
	<g>
		<ellipse style="opacity:0.4;fill:#B3B3B3;" cx="325" cy="420.867" rx="247.949" ry="9.599"/>
		<g>
			<polygon style="fill:#A1C3FF;" points="362.65,351.068 287.35,351.068 299.454,409.866 350.546,409.866 			"/>
			<polygon style="opacity:0.4;fill:#B3B3B3;" points="357.443,376.361 359.261,367.531 290.739,367.531 292.557,376.361 			"/>
			<polygon style="fill:#FFFFFF;" points="387.202,421.132 262.798,421.132 299.454,409.866 350.546,409.866 			"/>
			<path style="fill:#A1C3FF;" d="M384.981,423.353H265.019c-1.226,0-2.221-0.994-2.221-2.221l0,0h124.403l0,0
				C387.202,422.359,386.207,423.353,384.981,423.353z"/>
			<path style="fill:#FFFFFF;" d="M511.358,139.278H138.642c-2.49,0-4.517,2.026-4.517,4.517v219.72c0,2.49,2.026,4.517,4.517,4.517
				h372.717c2.49,0,4.517-2.026,4.517-4.517v-219.72C515.875,141.304,513.849,139.278,511.358,139.278z"/>
			<path style="fill:#A1C3FF;" d="M511.358,139.778H138.642c-2.218,0-4.017,1.798-4.017,4.017v219.72
				c0,2.218,1.798,4.017,4.017,4.017h372.717c2.218,0,4.017-1.798,4.017-4.017v-219.72
				C515.375,141.576,513.577,139.778,511.358,139.778z"/>
			<rect x="138.623" y="143.633" style="fill:#262A4C;" width="372.755" height="204.039"/>
			<g>
				
					<rect x="147.099" y="151.961" style="fill:none;stroke:#FFFFFF;stroke-width:0.25;stroke-miterlimit:10;" width="355.801" height="187.382"/>
				<rect x="145.711" y="150.572" style="fill:#FFFFFF;" width="2.777" height="2.777"/>
				<rect x="145.711" y="337.955" style="fill:#FFFFFF;" width="2.777" height="2.777"/>
				<rect x="501.512" y="150.572" style="fill:#FFFFFF;" width="2.777" height="2.777"/>
				<rect x="501.512" y="337.955" style="fill:#FFFFFF;" width="2.777" height="2.777"/>
			</g>
			<path style="fill:#373A6D;" d="M490.044,163.646H159.956c-2.605,0-4.717,2.112-4.717,4.717l0,0c0,2.605,2.112,4.717,4.717,4.717
				h330.087c2.605,0,4.717-2.112,4.717-4.717l0,0C494.76,165.758,492.649,163.646,490.044,163.646z"/>
			<g>
				<path style="fill:#FFB052;" d="M163.694,159.103c0-1.032-0.837-1.869-1.869-1.869c-1.032,0-1.869,0.837-1.869,1.869
					c0,1.032,0.837,1.869,1.869,1.869C162.857,160.972,163.694,160.135,163.694,159.103z"/>
				<path style="fill:#6FC9CE;" d="M171.669,159.103c0-1.032-0.837-1.869-1.869-1.869c-1.032,0-1.869,0.837-1.869,1.869
					c0,1.032,0.837,1.869,1.869,1.869C170.833,160.972,171.669,160.135,171.669,159.103z"/>
				<path style="fill:#FF6671;" d="M179.645,159.103c0-1.032-0.837-1.869-1.869-1.869c-1.032,0-1.869,0.837-1.869,1.869
					c0,1.032,0.837,1.869,1.869,1.869C178.808,160.972,179.645,160.135,179.645,159.103z"/>
			</g>
			<g>
				<polygon style="fill:#FFFFFF;" points="416.188,201.104 416.188,309.926 494.76,309.926 494.76,223.505 472.36,201.104 				"/>
				<polygon style="fill:#BEEEF7;" points="472.36,223.505 494.76,223.505 472.36,201.104 				"/>
				
					<text transform="matrix(1 0 0 1 431.96 263.3483)" style="fill:#373A6D; font-family:'Gilroy-ExtraBold'; font-size:22.1419px;">CMS</text>
				<g>
					<path style="fill:#A1C3FF;" d="M459.098,270.817h-28.487c-1.045,0-1.891,0.847-1.891,1.891l0,0
						c0,1.045,0.847,1.891,1.891,1.891h28.487c1.045,0,1.892-0.847,1.892-1.891l0,0C460.99,271.664,460.143,270.817,459.098,270.817
						z"/>
					<path style="fill:#A1C3FF;" d="M480.337,270.817h-13.476c-1.045,0-1.891,0.847-1.891,1.891l0,0
						c0,1.045,0.847,1.891,1.891,1.891h13.476c1.045,0,1.892-0.847,1.892-1.891l0,0
						C482.228,271.664,481.382,270.817,480.337,270.817z"/>
					<path style="fill:#BEEEF7;" d="M460.906,278.862h-35.363c-0.461,0-0.835,0.374-0.835,0.835l0,0
						c0,0.461,0.374,0.835,0.835,0.835h35.363c0.461,0,0.835-0.374,0.835-0.835l0,0
						C461.741,279.236,461.367,278.862,460.906,278.862z"/>
					<path style="fill:#BEEEF7;" d="M450.701,283.307h-19.113c-0.461,0-0.835,0.374-0.835,0.835l0,0
						c0,0.461,0.374,0.835,0.835,0.835h19.113c0.461,0,0.835-0.374,0.835-0.835l0,0
						C451.536,283.681,451.162,283.307,450.701,283.307z"/>
					<path style="fill:#BEEEF7;" d="M476.974,283.307h-23.323c-0.461,0-0.835,0.374-0.835,0.835l0,0
						c0,0.461,0.374,0.835,0.835,0.835h23.323c0.461,0,0.835-0.374,0.835-0.835l0,0
						C477.809,283.681,477.435,283.307,476.974,283.307z"/>
					<path style="fill:#BEEEF7;" d="M463.277,287.752h-35.363c-0.461,0-0.835,0.374-0.835,0.835l0,0
						c0,0.461,0.374,0.835,0.835,0.835h35.363c0.461,0,0.835-0.374,0.835-0.835l0,0
						C464.112,288.126,463.738,287.752,463.277,287.752z"/>
					<path style="fill:#BEEEF7;" d="M482.481,287.752h-15.878c-0.461,0-0.835,0.374-0.835,0.835l0,0
						c0,0.461,0.374,0.835,0.835,0.835h15.878c0.461,0,0.835-0.374,0.835-0.835l0,0
						C483.316,288.126,482.942,287.752,482.481,287.752z"/>
					<path style="fill:#BEEEF7;" d="M452.222,292.197h-16.824c-0.461,0-0.835,0.374-0.835,0.835l0,0
						c0,0.461,0.374,0.835,0.835,0.835h16.824c0.461,0,0.835-0.374,0.835-0.835l0,0
						C453.057,292.571,452.683,292.197,452.222,292.197z"/>
					<path style="fill:#BEEEF7;" d="M464.933,292.197h-9.608c-0.461,0-0.835,0.374-0.835,0.835l0,0c0,0.461,0.374,0.835,0.835,0.835
						h9.608c0.461,0,0.835-0.374,0.835-0.835l0,0C465.768,292.571,465.394,292.197,464.933,292.197z"/>
					<path style="fill:#BEEEF7;" d="M472.764,292.197h-4.593c-0.461,0-0.835,0.374-0.835,0.835l0,0c0,0.461,0.374,0.835,0.835,0.835
						h4.593c0.461,0,0.835-0.374,0.835-0.835l0,0C473.599,292.571,473.225,292.197,472.764,292.197z"/>
					<path style="fill:#BEEEF7;" d="M485.407,278.862h-20.835c-0.461,0-0.835,0.374-0.835,0.835l0,0
						c0,0.461,0.374,0.835,0.835,0.835h20.835c0.461,0,0.835-0.374,0.835-0.835l0,0
						C486.242,279.236,485.868,278.862,485.407,278.862z"/>
				</g>
			</g>
			<g>
				<rect x="307.446" y="201.104" style="fill:#FFFFFF;" width="85.454" height="108.822"/>
				<rect x="309.245" y="202.815" style="fill:#BEEEF7;" width="81.856" height="105.4"/>
				<circle style="fill:#FFE164;" cx="353.694" cy="230.202" r="14.335"/>
				<g>
					<defs>
						<rect id="SVGID_1_" x="309.245" y="202.815" width="81.856" height="105.4"/>
					</defs>
					<clipPath id="SVGID_00000108267333561488411470000002382485418917076635_">
						<use xlink:href="#SVGID_1_"  style="overflow:visible;"/>
					</clipPath>
					<g style="clip-path:url(#SVGID_00000108267333561488411470000002382485418917076635_);">
						<g>
							<polygon style="fill:#DD4A63;" points="325.591,246.562 295.022,292.887 356.16,292.887 							"/>
							<polygon style="fill:#FF6671;" points="325.591,246.562 309.225,292.887 356.16,292.887 							"/>
						</g>
						<g>
							<polygon style="fill:#DD4A63;" points="351.952,254.549 326.654,292.887 377.251,292.887 							"/>
							<polygon style="fill:#FF6671;" points="351.952,254.549 338.408,292.887 377.251,292.887 							"/>
						</g>
						<g>
							<polygon style="fill:#DD4A63;" points="382.253,259.888 360.477,292.887 404.029,292.887 							"/>
							<polygon style="fill:#FF6671;" points="382.253,259.888 370.595,292.887 404.029,292.887 							"/>
						</g>
					</g>
					<path style="clip-path:url(#SVGID_00000108267333561488411470000002382485418917076635_);fill:#FFFFFF;" d="M295.176,242.93
						c0-1.813,1.475-3.287,3.287-3.287c0.153,0,0.305,0.011,0.457,0.033c0.655-2.051,2.574-3.485,4.773-3.485
						c0.734,0,1.458,0.163,2.122,0.475c1.127-1.529,2.889-2.426,4.815-2.426c2.936,0,5.432,2.157,5.906,5.003
						c1.78,0.16,3.18,1.66,3.18,3.48c0,1.927-1.567,3.494-3.494,3.494h-17.759C296.65,246.218,295.176,244.743,295.176,242.93z"/>
					<path style="clip-path:url(#SVGID_00000108267333561488411470000002382485418917076635_);fill:#FFFFFF;" d="M378.831,219.709
						c0-1.813,1.475-3.287,3.287-3.287c0.153,0,0.305,0.011,0.457,0.033c0.654-2.051,2.573-3.485,4.773-3.485
						c0.734,0,1.458,0.163,2.122,0.475c1.127-1.529,2.889-2.426,4.815-2.426c2.936,0,5.432,2.157,5.906,5.003
						c1.78,0.159,3.18,1.66,3.18,3.48c0,1.927-1.567,3.494-3.494,3.494h-17.759C380.305,222.996,378.831,221.522,378.831,219.709z"
						/>
					<path style="clip-path:url(#SVGID_00000108267333561488411470000002382485418917076635_);fill:#FFFFFF;" d="M334.684,245.761
						c0-1.496,1.217-2.713,2.713-2.713c0.126,0,0.252,0.009,0.377,0.027c0.54-1.693,2.124-2.875,3.939-2.875
						c0.606,0,1.203,0.135,1.751,0.392c0.93-1.262,2.384-2.002,3.973-2.002c2.423,0,4.483,1.78,4.874,4.129
						c1.469,0.132,2.624,1.37,2.624,2.872c0,1.59-1.293,2.883-2.883,2.883h-14.655C335.901,248.474,334.684,247.257,334.684,245.761
						z"/>
					<path style="clip-path:url(#SVGID_00000108267333561488411470000002382485418917076635_);fill:#FFFFFF;" d="M377.09,239.869
						h-8.163c-0.886,0-1.606-0.721-1.606-1.606c0-0.837,0.643-1.527,1.462-1.6c0.218-1.308,1.365-2.3,2.715-2.3
						c0.885,0,1.695,0.413,2.213,1.115c0.305-0.143,0.638-0.218,0.975-0.218c1.011,0,1.893,0.659,2.194,1.602
						c0.07-0.01,0.14-0.015,0.21-0.015c0.833,0,1.511,0.678,1.511,1.511C378.601,239.191,377.923,239.869,377.09,239.869z"/>
					<path style="clip-path:url(#SVGID_00000108267333561488411470000002382485418917076635_);fill:#FFFFFF;" d="M331.853,222.527
						h-8.163c-0.886,0-1.606-0.72-1.606-1.606c0-0.837,0.643-1.527,1.462-1.6c0.218-1.308,1.365-2.3,2.715-2.3
						c0.885,0,1.695,0.413,2.213,1.115c0.305-0.143,0.638-0.218,0.975-0.218c1.011,0,1.893,0.659,2.194,1.602
						c0.07-0.01,0.14-0.015,0.21-0.015c0.833,0,1.511,0.678,1.511,1.511C333.364,221.849,332.686,222.527,331.853,222.527z"/>
				</g>
				<rect x="309.245" y="292.887" style="fill:#6FC9CE;" width="81.856" height="15.328"/>
				
					<rect x="304.745" y="198.412" style="fill:none;stroke:#FFFFFF;stroke-width:0.25;stroke-miterlimit:10;" width="90.855" height="114.206"/>
				<rect x="303.357" y="197.024" style="fill:#FFFFFF;" width="2.777" height="2.777"/>
				<rect x="303.357" y="311.23" style="fill:#FFFFFF;" width="2.777" height="2.777"/>
				<rect x="394.212" y="197.024" style="fill:#FFFFFF;" width="2.777" height="2.777"/>
				<rect x="394.212" y="311.23" style="fill:#FFFFFF;" width="2.777" height="2.777"/>
			</g>
			<g>
				
					<rect x="161.345" y="198.412" style="fill:none;stroke:#FFFFFF;stroke-width:0.25;stroke-miterlimit:10;" width="124.846" height="114.206"/>
				<rect x="159.956" y="197.024" style="fill:#FFFFFF;" width="2.777" height="2.777"/>
				<rect x="159.956" y="311.23" style="fill:#FFFFFF;" width="2.777" height="2.777"/>
				<rect x="284.802" y="197.024" style="fill:#FFFFFF;" width="2.777" height="2.777"/>
				<rect x="284.802" y="311.23" style="fill:#FFFFFF;" width="2.777" height="2.777"/>
				<text transform="matrix(1 0 0 1 171.6694 228.8747)"><tspan x="0" y="0" style="fill:#FF6671; font-family:'Gilroy-ExtraBold'; font-size:22.1419px;">LOREM</tspan><tspan x="0" y="21" style="fill:#FF6671; font-family:'Gilroy-ExtraBold'; font-size:22.1419px;">IPSUM</tspan></text>
				<g>
					<path style="fill:#A1C3FF;" d="M217.712,261.508h-43.176c-1.583,0-2.867,1.283-2.867,2.867v0c0,1.583,1.283,2.867,2.867,2.867
						h43.176c1.583,0,2.867-1.284,2.867-2.867v0C220.579,262.791,219.295,261.508,217.712,261.508z"/>
					<path style="fill:#A1C3FF;" d="M249.902,261.508h-20.425c-1.583,0-2.867,1.283-2.867,2.867v0c0,1.583,1.283,2.867,2.867,2.867
						h20.425c1.583,0,2.867-1.284,2.867-2.867v0C252.769,262.791,251.485,261.508,249.902,261.508z"/>
					<path style="fill:#BEEEF7;" d="M226.533,272.237h-53.598c-0.699,0-1.266,0.567-1.266,1.266v0c0,0.699,0.567,1.266,1.266,1.266
						h53.598c0.699,0,1.266-0.567,1.266-1.266v0C227.799,272.804,227.232,272.237,226.533,272.237z"/>
					<path style="fill:#BEEEF7;" d="M201.903,278.975h-28.968c-0.699,0-1.266,0.567-1.266,1.266l0,0
						c0,0.699,0.567,1.266,1.266,1.266h28.968c0.699,0,1.266-0.567,1.266-1.266l0,0
						C203.169,279.542,202.602,278.975,201.903,278.975z"/>
					<path style="fill:#BEEEF7;" d="M241.724,278.975h-35.349c-0.699,0-1.266,0.567-1.266,1.266l0,0
						c0,0.699,0.567,1.266,1.266,1.266h35.349c0.699,0,1.266-0.567,1.266-1.266l0,0C242.99,279.542,242.423,278.975,241.724,278.975
						z"/>
					<path style="fill:#BEEEF7;" d="M226.533,285.712h-53.598c-0.699,0-1.266,0.567-1.266,1.266l0,0
						c0,0.699,0.567,1.266,1.266,1.266h53.598c0.699,0,1.266-0.567,1.266-1.266l0,0
						C227.799,286.279,227.232,285.712,226.533,285.712z"/>
					<path style="fill:#BEEEF7;" d="M255.639,285.712h-24.066c-0.699,0-1.266,0.567-1.266,1.266l0,0
						c0,0.699,0.567,1.266,1.266,1.266h24.066c0.699,0,1.266-0.567,1.266-1.266l0,0
						C256.905,286.279,256.339,285.712,255.639,285.712z"/>
					<path style="fill:#BEEEF7;" d="M198.434,292.45h-25.499c-0.699,0-1.266,0.567-1.266,1.266l0,0c0,0.699,0.567,1.266,1.266,1.266
						h25.499c0.699,0,1.266-0.567,1.266-1.266l0,0C199.7,293.016,199.133,292.45,198.434,292.45z"/>
					<path style="fill:#BEEEF7;" d="M217.699,292.45h-14.562c-0.699,0-1.266,0.567-1.266,1.266v0c0,0.699,0.567,1.266,1.266,1.266
						h14.562c0.699,0,1.266-0.567,1.266-1.266v0C218.965,293.016,218.398,292.45,217.699,292.45z"/>
					<path style="fill:#BEEEF7;" d="M229.568,292.45h-6.961c-0.699,0-1.266,0.567-1.266,1.266l0,0c0,0.699,0.567,1.266,1.266,1.266
						h6.961c0.699,0,1.266-0.567,1.266-1.266l0,0C230.834,293.016,230.267,292.45,229.568,292.45z"/>
					<path style="fill:#BEEEF7;" d="M263.668,272.237H232.09c-0.699,0-1.266,0.567-1.266,1.266v0c0,0.699,0.567,1.266,1.266,1.266
						h31.578c0.699,0,1.266-0.567,1.266-1.266v0C264.934,272.804,264.367,272.237,263.668,272.237z"/>
				</g>
			</g>
			<g style="opacity:0.03;">
				<path style="fill:#FFFFFF;" d="M511.358,139.778h-9.18L274.425,367.531h179.788l61.163-61.163V143.795
					C515.375,141.576,513.577,139.778,511.358,139.778z"/>
				<polygon style="fill:#FFFFFF;" points="443.638,139.778 215.884,367.531 248.932,367.531 476.686,139.778 				"/>
				<polygon style="fill:#FFFFFF;" points="238.358,139.778 134.625,243.511 134.625,361.368 140.788,367.531 190.393,367.531 
					418.146,139.778 				"/>
				<polygon style="fill:#FFFFFF;" points="179.818,139.778 134.625,184.971 134.625,218.019 212.866,139.778 				"/>
			</g>
			<path style="fill:#FFFFFF;" d="M134.625,363.514c0,2.218,1.798,4.017,4.017,4.017h372.717c2.218,0,4.017-1.798,4.017-4.017
				v-12.446h-380.75V363.514z"/>
		</g>
		<g>
			<path style="fill:#FFFFFF;" d="M161.642,323.363H85.839c-8.224,0-14.915-6.69-14.915-14.914c0-7.772,5.975-14.175,13.573-14.855
				c2.023-12.147,12.679-21.356,25.21-21.356c8.221,0,15.743,3.83,20.553,10.356c2.835-1.332,5.924-2.028,9.058-2.028
				c9.389,0,17.581,6.118,20.374,14.874c0.647-0.092,1.298-0.139,1.95-0.139c7.737,0,14.032,6.294,14.032,14.031
				C175.674,317.069,169.38,323.363,161.642,323.363z M85.839,298.534c-5.467,0-9.915,4.448-9.915,9.915s4.448,9.914,9.915,9.914
				h75.803c4.98,0,9.032-4.052,9.032-9.031c0-4.98-4.052-9.031-9.032-9.031c-0.99,0-1.982,0.17-2.949,0.504
				c-0.688,0.237-1.442,0.163-2.071-0.201c-0.628-0.364-1.067-0.984-1.202-1.698c-1.459-7.729-8.231-13.34-16.102-13.34
				c-3.01,0-5.97,0.842-8.561,2.435c-0.567,0.349-1.251,0.455-1.897,0.3c-0.647-0.156-1.205-0.565-1.55-1.135
				c-3.765-6.217-10.346-9.928-17.603-9.928c-10.707,0-19.711,8.357-20.499,19.026c-0.102,1.373-1.293,2.4-2.67,2.31l-0.124-0.01
				C86.223,298.55,86.033,298.534,85.839,298.534z"/>
			<path style="fill:#FFFFFF;" d="M341.317,144.852c0-7.737,6.294-14.031,14.032-14.031c0.652,0,1.303,0.047,1.95,0.139
				c2.793-8.756,10.985-14.874,20.374-14.874c3.133,0,6.223,0.696,9.058,2.028c4.811-6.526,12.333-10.357,20.553-10.357
				c12.531,0,23.187,9.209,25.21,21.357c7.598,0.681,13.573,7.084,13.573,14.855c0,8.224-6.69,14.914-14.914,14.914h-75.803
				C347.611,158.883,341.317,152.589,341.317,144.852z M430.577,134.083l-0.125,0.01c-1.376,0.091-2.568-0.937-2.669-2.31
				c-0.788-10.669-9.793-19.026-20.5-19.026c-7.257,0-13.837,3.711-17.602,9.928c-0.345,0.569-0.903,0.979-1.55,1.135
				c-0.646,0.155-1.33,0.049-1.897-0.3c-2.591-1.593-5.551-2.435-8.561-2.435c-7.871,0-14.643,5.61-16.102,13.34
				c-0.135,0.714-0.573,1.334-1.202,1.698c-0.629,0.364-1.384,0.439-2.071,0.201c-0.967-0.334-1.96-0.504-2.949-0.504
				c-4.98,0-9.032,4.052-9.032,9.031c0,4.98,4.052,9.031,9.032,9.031h75.803c5.467,0,9.914-4.447,9.914-9.914
				s-4.448-9.915-9.914-9.915C430.958,134.054,430.768,134.069,430.577,134.083z"/>
			<path style="fill:#FFFFFF;" d="M482.004,333.83c0-5.891,4.793-10.684,10.684-10.684c0.497,0,0.992,0.036,1.485,0.106
				c2.127-6.667,8.364-11.326,15.514-11.326c2.386,0,4.738,0.53,6.897,1.544c3.663-4.97,9.391-7.886,15.65-7.886
				c9.542,0,17.656,7.012,19.196,16.262c5.785,0.518,10.335,5.394,10.335,11.311c0,6.262-5.094,11.356-11.356,11.356h-57.72
				C486.797,344.514,482.004,339.721,482.004,333.83z M549.97,325.63l-0.095,0.008c-1.048,0.069-1.955-0.713-2.033-1.759
				c-0.6-8.124-7.456-14.487-15.609-14.487c-5.526,0-10.536,2.826-13.403,7.559c-0.262,0.434-0.688,0.745-1.18,0.864
				c-0.492,0.118-1.013,0.037-1.445-0.228c-1.973-1.213-4.227-1.854-6.519-1.854c-5.993,0-11.15,4.272-12.261,10.158
				c-0.103,0.544-0.436,1.016-0.915,1.293c-0.479,0.277-1.054,0.334-1.577,0.153c-0.736-0.254-1.492-0.384-2.246-0.384
				c-3.792,0-6.877,3.085-6.877,6.877c0,3.792,3.085,6.877,6.877,6.877h57.72c4.163,0,7.549-3.386,7.549-7.549
				c0-4.163-3.387-7.55-7.549-7.55C550.26,325.608,550.115,325.62,549.97,325.63z"/>
		</g>
		<g>
			<path style="fill:#FF6671;" d="M450.379,326.065h-76.544c-3.207,0-5.807,2.6-5.807,5.807v54.855c0,3.207,2.6,5.807,5.807,5.807
				h76.544c3.207,0,5.807-2.6,5.807-5.807v-54.855C456.186,328.665,453.586,326.065,450.379,326.065z"/>
			<rect x="372.068" y="338.81" style="fill:#FFFFFF;" width="80.078" height="49.427"/>
			<g>
				<path style="fill:#A1C3FF;" d="M402.082,360.5l-11.036,3.79l11.036,3.787v6.193l-18.578-6.738v-6.483l18.578-6.738V360.5z"/>
				<path style="fill:#A1C3FF;" d="M414.66,346.368h7.284l-12.02,34.311h-7.284L414.66,346.368z"/>
				<path style="fill:#A1C3FF;" d="M440.711,361.048v6.483l-18.578,6.738v-6.193l11.039-3.787l-11.039-3.79v-6.19L440.711,361.048z"
					/>
			</g>
			<path style="fill:#6FC9CE;" d="M388.472,333.392c0-1.021,0.828-1.849,1.849-1.849c1.021,0,1.849,0.828,1.849,1.849
				s-0.828,1.849-1.849,1.849C389.3,335.241,388.472,334.413,388.472,333.392z"/>
			<path style="fill:#FFE164;" d="M380.27,333.392c0-1.021,0.828-1.849,1.849-1.849c1.021,0,1.849,0.828,1.849,1.849
				s-0.828,1.849-1.849,1.849C381.098,335.241,380.27,334.413,380.27,333.392z"/>
			<circle style="fill:#FFFFFF;" cx="373.917" cy="333.392" r="1.849"/>
		</g>
		<g>
			<rect x="213.903" y="109.832" style="fill:#A1C3FF;" width="101.959" height="71.143"/>
			<rect x="214.716" y="110.693" style="fill:#262A4C;" width="100.333" height="69.421"/>
			
				<ellipse transform="matrix(0.9876 -0.1573 0.1573 0.9876 -19.2953 43.4526)" style="fill:#373A6D;" cx="264.882" cy="143.633" rx="9.728" ry="9.728"/>
			<polygon style="fill:#262A4C;" points="271.375,143.633 261.437,137.895 261.437,149.371 			"/>
			<rect x="214.716" y="175.466" style="fill:#373A6D;" width="100.333" height="4.648"/>
			<rect x="214.716" y="174.641" style="fill:#FFFFFF;" width="100.333" height="0.825"/>
			<rect x="214.716" y="174.641" style="fill:#FF6671;" width="74.634" height="0.825"/>
			<path style="fill:#FF6671;" d="M290.215,175.017c0-0.537-0.435-0.972-0.972-0.972c-0.537,0-0.972,0.435-0.972,0.972
				c0,0.537,0.435,0.972,0.972,0.972C289.78,175.989,290.215,175.554,290.215,175.017z"/>
		</g>
	</g>
	<g>
		<path style="fill:#A1C3FF;" d="M217.147,385.765l-93.938,10.828c-7.365,0.849-12.647,7.508-11.798,14.872l0,0
			c0.849,7.365,7.508,12.647,14.872,11.798l93.938-10.828c7.365-0.849,12.647-7.507,11.798-14.872v0
			C231.171,390.198,224.512,384.916,217.147,385.765z"/>
		<path style="fill:#8CB6F4;" d="M217.283,389.878l-93.27,10.751c-5.115,0.59-8.783,5.214-8.194,10.329l0,0
			c0.59,5.115,5.214,8.783,10.329,8.194l93.27-10.751c5.115-0.59,8.783-5.214,8.193-10.329l0,0
			C227.022,392.956,222.398,389.288,217.283,389.878z"/>
		<path style="opacity:0.4;fill:#B3B3B3;" d="M217.147,385.765l-10.317,1.189c-1.764,4.198-2.51,8.891-1.952,13.737
			c0.559,4.846,2.354,9.246,5.026,12.933l10.317-1.189c7.365-0.849,12.647-7.508,11.798-14.872
			C231.171,390.198,224.512,384.916,217.147,385.765z"/>
		<path style="fill:#A1C3FF;" d="M234.642,409.775l-2.847-24.701l21.208-2.445c-5.267-7.387-14.282-11.764-23.933-10.651
			c-14.13,1.629-24.264,14.404-22.635,28.533c1.629,14.13,14.404,24.264,28.534,22.635c9.65-1.112,17.434-7.426,20.882-15.817
			L234.642,409.775z"/>
		<g>
			<path style="fill:#FFFFFF;" d="M182.845,396.625l-29.69,3.422c-0.578,0.066-0.992,0.589-0.926,1.167s0.589,0.992,1.167,0.925
				l29.69-3.422c0.578-0.067,0.992-0.589,0.925-1.167C183.945,396.973,183.423,396.559,182.845,396.625z"/>
			<path style="fill:#FFFFFF;" d="M197.705,394.913l-10.766,1.241c-0.578,0.066-0.992,0.589-0.925,1.167s0.589,0.992,1.167,0.925
				l10.766-1.241c0.578-0.067,0.992-0.589,0.925-1.166C198.805,395.26,198.283,394.846,197.705,394.913z"/>
		</g>
	</g>
	<g>
		<g>
			<path style="fill:#FFE164;" d="M113.573,362.285c-0.373,0-0.675,0.302-0.675,0.675v3.743c0,0.373,0.302,0.675,0.675,0.675
				s0.675-0.302,0.675-0.675v-3.743C114.248,362.587,113.946,362.285,113.573,362.285z"/>
			<path style="fill:#FFE164;" d="M113.573,376.234c-0.373,0-0.675,0.302-0.675,0.676v3.744c0,0.373,0.302,0.675,0.675,0.675
				s0.675-0.302,0.675-0.675v-3.744C114.248,376.536,113.946,376.234,113.573,376.234z"/>
			<path style="fill:#FFE164;" d="M122.419,371.131h-3.743c-0.373,0-0.675,0.302-0.675,0.675c0,0.373,0.302,0.676,0.675,0.676h3.743
				c0.373,0,0.675-0.302,0.675-0.676C123.095,371.433,122.792,371.131,122.419,371.131z"/>
			<path style="fill:#FFE164;" d="M108.471,371.131h-3.744c-0.373,0-0.675,0.302-0.675,0.675c0,0.373,0.302,0.676,0.675,0.676h3.744
				c0.373,0,0.675-0.302,0.675-0.676C109.146,371.433,108.844,371.131,108.471,371.131z"/>
		</g>
		<g>
			<path style="fill:#BEEEF7;" d="M586.179,328.433c-0.373,0-0.675,0.302-0.675,0.675v3.743c0,0.373,0.302,0.675,0.675,0.675
				s0.675-0.302,0.675-0.675v-3.743C586.855,328.735,586.552,328.433,586.179,328.433z"/>
			<path style="fill:#BEEEF7;" d="M586.179,342.382c-0.373,0-0.675,0.302-0.675,0.676v3.744c0,0.373,0.302,0.675,0.675,0.675
				s0.675-0.302,0.675-0.675v-3.744C586.855,342.684,586.552,342.382,586.179,342.382z"/>
			<path style="fill:#BEEEF7;" d="M595.026,337.279h-3.743c-0.373,0-0.676,0.302-0.676,0.675c0,0.373,0.302,0.675,0.676,0.675h3.743
				c0.373,0,0.675-0.302,0.675-0.675C595.701,337.581,595.399,337.279,595.026,337.279z"/>
			<path style="fill:#BEEEF7;" d="M581.077,337.279h-3.744c-0.373,0-0.675,0.302-0.675,0.675c0,0.373,0.302,0.675,0.675,0.675h3.744
				c0.373,0,0.675-0.302,0.675-0.675C581.753,337.581,581.45,337.279,581.077,337.279z"/>
		</g>
		<g>
			<path style="fill:#FFE164;" d="M546.116,147.713c-0.373,0-0.675,0.302-0.675,0.675v3.743c0,0.373,0.302,0.675,0.675,0.675
				s0.675-0.302,0.675-0.675v-3.743C546.791,148.015,546.489,147.713,546.116,147.713z"/>
			<path style="fill:#FFE164;" d="M546.116,161.661c-0.373,0-0.675,0.302-0.675,0.675v3.744c0,0.373,0.302,0.675,0.675,0.675
				s0.675-0.302,0.675-0.675v-3.744C546.791,161.963,546.489,161.661,546.116,161.661z"/>
			<path style="fill:#FFE164;" d="M554.962,156.558h-3.744c-0.373,0-0.675,0.302-0.675,0.675c0,0.373,0.302,0.676,0.675,0.676h3.744
				c0.373,0,0.675-0.302,0.675-0.676C555.637,156.861,555.335,156.558,554.962,156.558z"/>
			<path style="fill:#FFE164;" d="M541.013,156.558h-3.744c-0.373,0-0.675,0.302-0.675,0.675c0,0.373,0.302,0.676,0.675,0.676h3.744
				c0.373,0,0.675-0.302,0.675-0.676C541.689,156.861,541.386,156.558,541.013,156.558z"/>
		</g>
		<g>
			<path style="fill:#FFFFFF;" d="M123.095,348.347c-0.173,0-0.314,0.14-0.314,0.314v1.739c0,0.173,0.14,0.314,0.314,0.314
				c0.173,0,0.314-0.14,0.314-0.314v-1.739C123.408,348.487,123.268,348.347,123.095,348.347z"/>
			<path style="fill:#FFFFFF;" d="M123.095,354.827c-0.173,0-0.314,0.14-0.314,0.314v1.739c0,0.173,0.14,0.314,0.314,0.314
				c0.173,0,0.314-0.14,0.314-0.314v-1.739C123.408,354.967,123.268,354.827,123.095,354.827z"/>
			<path style="fill:#FFFFFF;" d="M127.204,352.456h-1.739c-0.173,0-0.314,0.14-0.314,0.314s0.14,0.314,0.314,0.314h1.739
				c0.173,0,0.314-0.14,0.314-0.314S127.377,352.456,127.204,352.456z"/>
			<path style="fill:#FFFFFF;" d="M120.724,352.456h-1.739c-0.173,0-0.314,0.14-0.314,0.314s0.141,0.314,0.314,0.314h1.739
				c0.173,0,0.314-0.14,0.314-0.314S120.898,352.456,120.724,352.456z"/>
		</g>
		<g>
			<path style="fill:#FFFFFF;" d="M70.925,270.177c-0.173,0-0.314,0.14-0.314,0.314v1.739c0,0.173,0.14,0.314,0.314,0.314
				c0.173,0,0.314-0.14,0.314-0.314v-1.739C71.238,270.317,71.098,270.177,70.925,270.177z"/>
			<path style="fill:#FFFFFF;" d="M70.925,276.657c-0.173,0-0.314,0.14-0.314,0.314v1.739c0,0.173,0.14,0.314,0.314,0.314
				c0.173,0,0.314-0.14,0.314-0.314v-1.739C71.238,276.797,71.098,276.657,70.925,276.657z"/>
			<path style="fill:#FFFFFF;" d="M75.034,274.286h-1.739c-0.173,0-0.314,0.14-0.314,0.314s0.14,0.314,0.314,0.314h1.739
				c0.173,0,0.314-0.14,0.314-0.314S75.207,274.286,75.034,274.286z"/>
			<path style="fill:#FFFFFF;" d="M68.554,274.286h-1.739c-0.173,0-0.314,0.14-0.314,0.314s0.141,0.314,0.314,0.314h1.739
				c0.173,0,0.314-0.14,0.314-0.314S68.728,274.286,68.554,274.286z"/>
		</g>
		<g>
			<path style="fill:#FFFFFF;" d="M558.877,176.552c-0.173,0-0.314,0.14-0.314,0.314v1.739c0,0.173,0.14,0.314,0.314,0.314
				c0.173,0,0.314-0.14,0.314-0.314v-1.739C559.191,176.692,559.05,176.552,558.877,176.552z"/>
			<path style="fill:#FFFFFF;" d="M558.877,183.032c-0.173,0-0.314,0.14-0.314,0.314v1.739c0,0.173,0.14,0.314,0.314,0.314
				c0.173,0,0.314-0.14,0.314-0.314v-1.739C559.191,183.172,559.05,183.032,558.877,183.032z"/>
			<path style="fill:#FFFFFF;" d="M562.987,180.661h-1.739c-0.173,0-0.314,0.14-0.314,0.314s0.141,0.314,0.314,0.314h1.739
				c0.173,0,0.314-0.14,0.314-0.314S563.16,180.661,562.987,180.661z"/>
			<path style="fill:#FFFFFF;" d="M556.507,180.661h-1.739c-0.173,0-0.314,0.14-0.314,0.314s0.141,0.314,0.314,0.314h1.739
				c0.173,0,0.314-0.14,0.314-0.314S556.68,180.661,556.507,180.661z"/>
		</g>
		<g>
			<path style="fill:#FFFFFF;" d="M567.724,381.252c-0.173,0-0.314,0.14-0.314,0.314v1.739c0,0.173,0.141,0.314,0.314,0.314
				c0.173,0,0.314-0.14,0.314-0.314v-1.739C568.037,381.392,567.897,381.252,567.724,381.252z"/>
			<path style="fill:#FFFFFF;" d="M567.724,387.732c-0.173,0-0.314,0.14-0.314,0.314v1.739c0,0.173,0.141,0.314,0.314,0.314
				c0.173,0,0.314-0.14,0.314-0.314v-1.739C568.037,387.872,567.897,387.732,567.724,387.732z"/>
			<path style="fill:#FFFFFF;" d="M571.833,385.361h-1.739c-0.173,0-0.314,0.14-0.314,0.314s0.141,0.314,0.314,0.314h1.739
				c0.173,0,0.314-0.14,0.314-0.314S572.006,385.361,571.833,385.361z"/>
			<path style="fill:#FFFFFF;" d="M565.353,385.361h-1.739c-0.173,0-0.314,0.14-0.314,0.314s0.14,0.314,0.314,0.314h1.739
				c0.173,0,0.314-0.14,0.314-0.314S565.527,385.361,565.353,385.361z"/>
		</g>
		<g>
			<path style="fill:#BEEEF7;" d="M230.969,91.054c-0.173,0-0.314,0.14-0.314,0.314v1.739c0,0.173,0.141,0.314,0.314,0.314
				c0.173,0,0.314-0.14,0.314-0.314v-1.739C231.283,91.194,231.142,91.054,230.969,91.054z"/>
			<path style="fill:#BEEEF7;" d="M230.969,97.534c-0.173,0-0.314,0.14-0.314,0.314v1.739c0,0.174,0.141,0.314,0.314,0.314
				c0.173,0,0.314-0.14,0.314-0.314v-1.739C231.283,97.674,231.142,97.534,230.969,97.534z"/>
			<path style="fill:#BEEEF7;" d="M235.078,95.163h-1.739c-0.173,0-0.314,0.14-0.314,0.314s0.14,0.314,0.314,0.314h1.739
				c0.173,0,0.314-0.14,0.314-0.314S235.251,95.163,235.078,95.163z"/>
			<path style="fill:#BEEEF7;" d="M228.598,95.163h-1.739c-0.173,0-0.314,0.14-0.314,0.314s0.141,0.314,0.314,0.314h1.739
				c0.173,0,0.314-0.14,0.314-0.314S228.772,95.163,228.598,95.163z"/>
		</g>
		<g>
			<path style="fill:#FFFFFF;" d="M248.411,77.1c-0.173,0-0.314,0.14-0.314,0.314v1.739c0,0.173,0.141,0.314,0.314,0.314
				c0.173,0,0.314-0.14,0.314-0.314v-1.739C248.724,77.24,248.584,77.1,248.411,77.1z"/>
			<path style="fill:#FFFFFF;" d="M248.411,83.579c-0.173,0-0.314,0.14-0.314,0.314v1.739c0,0.174,0.141,0.314,0.314,0.314
				c0.173,0,0.314-0.14,0.314-0.314v-1.739C248.724,83.72,248.584,83.579,248.411,83.579z"/>
			<path style="fill:#FFFFFF;" d="M252.52,81.209h-1.739c-0.173,0-0.314,0.14-0.314,0.314c0,0.173,0.14,0.314,0.314,0.314h1.739
				c0.173,0,0.314-0.14,0.314-0.314C252.834,81.35,252.693,81.209,252.52,81.209z"/>
			<path style="fill:#FFFFFF;" d="M246.04,81.209h-1.739c-0.173,0-0.314,0.14-0.314,0.314c0,0.173,0.141,0.314,0.314,0.314h1.739
				c0.173,0,0.314-0.14,0.314-0.314C246.354,81.35,246.214,81.209,246.04,81.209z"/>
		</g>
	</g>
</g>
</svg>
