<?xml version="1.0" encoding="utf-8"?>
<!-- Generator: Adobe Illustrator 27.5.0, SVG Export Plug-In . SVG Version: 6.00 Build 0)  -->
<svg version="1.1" xmlns="http://www.w3.org/2000/svg" xmlns:xlink="http://www.w3.org/1999/xlink" x="0px" y="0px"
	 viewBox="0 0 500 500" style="enable-background:new 0 0 500 500;" xml:space="preserve">
<g id="BACKGROUND">
	<rect style="fill:#1A0763;" width="500" height="500"/>
</g>
<g id="OBJECTS">
	<g>
		<g>
			
				<text transform="matrix(1 0 0 1 147.718 135.056)" style="fill:#403699; font-family:'Montserrat-BlackItalic'; font-size:27.4439px;">ENGINEERING</text>
			<text transform="matrix(1 0 0 1 188.6191 108.9369)"><tspan x="0" y="0" style="fill:#403699; font-family:'BebasNeueBold'; font-size:20.379px; letter-spacing:8;">compute</tspan><tspan x="114.569" y="0" style="fill:#403699; font-family:'BebasNeueBold'; font-size:20.379px;">r</tspan></text>
		</g>
		<g>
			<g>
				<g>
					<path style="fill:none;stroke:#403699;stroke-linecap:round;stroke-miterlimit:10;" d="M357.356,327.797
						c0-0.504,0.017-1.004,0.051-1.5"/>
					<path style="fill:none;stroke:#403699;stroke-linecap:round;stroke-miterlimit:10;stroke-dasharray:2.996,2.996;" d="
						M357.818,323.331c2.058-9.798,10.75-17.155,21.16-17.155c11.941,0,21.622,9.68,21.622,21.621
						c0,9.702-6.391,17.912-15.192,20.65c-1.11,0.345-2.259,0.604-3.438,0.767"/>
					<path style="fill:none;stroke:#403699;stroke-linecap:round;stroke-miterlimit:10;" d="M380.477,349.368
						c-0.495,0.034-0.995,0.051-1.499,0.051"/>
				</g>
			</g>
			<g>
				<g>
					<path style="fill:none;stroke:#403699;stroke-linecap:round;stroke-miterlimit:10;" d="M93.598,261.369
						c0.463-0.199,0.929-0.381,1.398-0.545"/>
					<path style="fill:none;stroke:#403699;stroke-linecap:round;stroke-miterlimit:10;stroke-dasharray:2.996,2.996;" d="
						M97.883,260.03c9.815-1.978,20.006,3.103,24.116,12.667c4.715,10.971-0.357,23.687-11.328,28.402
						c-8.914,3.831-18.98,1.201-24.97-5.804c-0.756-0.884-1.446-1.837-2.062-2.856"/>
					<path style="fill:none;stroke:#403699;stroke-linecap:round;stroke-miterlimit:10;" d="M82.909,291.128
						c-0.227-0.442-0.44-0.894-0.639-1.357"/>
				</g>
			</g>
			<g>
				<g>
					<path style="fill:none;stroke:#403699;stroke-linecap:round;stroke-miterlimit:10;" d="M248.97,146.164
						c0.463-0.199,0.929-0.381,1.398-0.545"/>
					<path style="fill:none;stroke:#403699;stroke-linecap:round;stroke-miterlimit:10;stroke-dasharray:2.996,2.996;" d="
						M253.256,144.825c9.815-1.978,20.006,3.103,24.116,12.667c4.715,10.971-0.357,23.687-11.328,28.402
						c-8.914,3.831-18.98,1.201-24.97-5.804c-0.756-0.884-1.446-1.837-2.062-2.856"/>
					<path style="fill:none;stroke:#403699;stroke-linecap:round;stroke-miterlimit:10;" d="M238.281,175.923
						c-0.227-0.442-0.44-0.894-0.639-1.357"/>
				</g>
			</g>
			<path style="fill:none;stroke:#403699;stroke-linecap:round;stroke-miterlimit:10;stroke-dasharray:3;" d="M183.602,264.819
				c-22.273-12.591-30.122-40.853-17.531-63.126c12.591-22.273,40.853-30.122,63.126-17.531
				c18.097,10.23,26.672,30.806,22.498,50.109c-0.963,4.455-2.605,8.841-4.966,13.017"/>
			<g>
				<g>
					<path style="fill:none;stroke:#403699;stroke-linecap:round;stroke-miterlimit:10;" d="M414.371,272.448
						c0.237,0.445,0.456,0.895,0.657,1.349"/>
					<path style="fill:none;stroke:#403699;stroke-linecap:round;stroke-miterlimit:10;stroke-dasharray:2.9251,2.9251;" d="
						M416.009,276.552c2.409,8.766-1.467,18.34-9.825,22.797c-9.689,5.168-21.734,1.502-26.901-8.187
						c-4.199-7.873-2.566-17.3,3.391-23.33c0.704-0.713,1.469-1.378,2.292-1.988"/>
					<path style="fill:none;stroke:#403699;stroke-linecap:round;stroke-miterlimit:10;" d="M386.173,265.015
						c0.419-0.265,0.852-0.517,1.297-0.755"/>
				</g>
			</g>
			<g>
				<g>
					<path style="fill:none;stroke:#403699;stroke-linecap:round;stroke-miterlimit:10;" d="M141.195,307.949
						c0.464,0.191,0.923,0.39,1.377,0.596"/>
					<path style="fill:none;stroke:#403699;stroke-linecap:round;stroke-miterlimit:10;stroke-dasharray:2.9931,2.9931;" d="
						M145.255,309.873c19.251,10.371,27.921,33.834,19.398,54.49c-9.1,22.056-34.358,32.559-56.414,23.458
						c-17.921-7.394-28.214-25.454-26.563-43.797c0.295-3.28,0.972-6.568,2.056-9.806"/>
					<path style="fill:none;stroke:#403699;stroke-linecap:round;stroke-miterlimit:10;" d="M84.233,332.804
						c0.174-0.467,0.357-0.932,0.549-1.396"/>
				</g>
			</g>
			<path style="fill:#EA47E3;" d="M161.603,351.712v-13.898h-8.732c-0.748-2.658-1.867-5.153-3.297-7.441l6.326-6.326l-9.827-9.827
				l-6.472,6.472c-2.256-1.317-4.703-2.328-7.294-2.997v-9.178h-13.898v9.027c-2.667,0.629-5.192,1.615-7.517,2.926l-6.25-6.25
				l-9.827,9.827l5.96,5.96c-1.54,2.385-2.731,5.009-3.519,7.807h-8.144v13.898h7.684c0.647,3.036,1.785,5.882,3.303,8.483
				l-5.284,5.284l9.827,9.827l5.137-5.137c2.626,1.641,5.528,2.87,8.63,3.603v7.237h13.898v-7.388
				c3.022-0.781,5.854-2.024,8.408-3.674l5.359,5.359l9.827-9.827l-5.649-5.649c1.41-2.501,2.464-5.226,3.081-8.117H161.603z
				 M139.171,348.75c-0.227,1.038-0.582,2.021-1.019,2.962c-1.248,2.692-3.299,4.904-5.846,6.39
				c-0.743,0.433-1.518,0.804-2.337,1.101c-1.538,0.558-3.175,0.912-4.906,0.912c-1.566,0-3.045-0.312-4.458-0.773
				c-0.765-0.249-1.494-0.554-2.197-0.921c-2.819-1.474-5.092-3.814-6.434-6.709c-0.371-0.801-0.659-1.641-0.88-2.514
				c-0.288-1.139-0.488-2.312-0.488-3.54c0-1.731,0.354-3.368,0.912-4.906c0.376-1.036,0.836-2.027,1.427-2.938
				c1.354-2.088,3.247-3.761,5.463-4.92c1.119-0.585,2.296-1.068,3.563-1.345c0.998-0.218,2.028-0.349,3.092-0.349
				c1.229,0,2.402,0.2,3.541,0.488c1.32,0.334,2.555,0.855,3.702,1.524c1.962,1.145,3.642,2.699,4.875,4.601
				c0.674,1.039,1.175,2.186,1.566,3.386c0.461,1.412,0.773,2.892,0.773,4.458C139.52,346.722,139.389,347.752,139.171,348.75z"/>
			<path style="fill:none;stroke:#352789;stroke-width:2;stroke-miterlimit:10;" d="M344.834,216.027l3.352-13.487l-8.474-2.106
				c-0.085-2.76-0.569-5.451-1.405-8.017l7.665-4.613l-7.167-11.907l-7.842,4.72c-1.871-1.822-4.003-3.393-6.356-4.668l2.214-8.907
				l-13.487-3.352l-2.177,8.76c-2.74-0.032-5.428,0.315-8.001,1.027l-4.558-7.573l-11.907,7.167l4.347,7.221
				c-2.07,1.943-3.858,4.202-5.298,6.728l-7.903-1.964l-3.352,13.487l7.457,1.853c-0.104,3.102,0.313,6.139,1.159,9.029
				l-6.402,3.854l7.167,11.907l6.225-3.747c2.153,2.226,4.673,4.119,7.506,5.578l-1.745,7.023l13.487,3.352l1.782-7.17
				c3.121-0.029,6.169-0.553,9.045-1.538l3.909,6.494l11.907-7.167l-4.12-6.845c1.972-2.087,3.652-4.477,4.947-7.135
				L344.834,216.027z M323.779,207.742c-0.47,0.953-1.052,1.821-1.703,2.629c-1.861,2.311-4.384,3.963-7.215,4.791
				c-0.825,0.241-1.667,0.414-2.533,0.505c-1.627,0.171-3.301,0.119-4.981-0.298c-1.52-0.378-2.88-1.037-4.14-1.825
				c-0.682-0.426-1.317-0.898-1.91-1.424c-2.38-2.11-4.022-4.929-4.626-8.063c-0.167-0.867-0.243-1.752-0.247-2.652
				c-0.005-1.175,0.084-2.361,0.38-3.554c0.417-1.68,1.156-3.183,2.069-4.541c0.615-0.915,1.301-1.766,2.093-2.507
				c1.818-1.7,4.058-2.867,6.488-3.457c1.227-0.298,2.486-0.483,3.782-0.446c1.021,0.029,2.053,0.151,3.085,0.407
				c1.192,0.296,2.283,0.773,3.318,1.328c1.2,0.643,2.273,1.446,3.225,2.372c1.628,1.584,2.883,3.498,3.622,5.641
				c0.403,1.171,0.613,2.405,0.703,3.664c0.107,1.482,0.053,2.993-0.325,4.512C324.606,205.858,324.231,206.826,323.779,207.742z"/>
			<path style="fill:#352789;" d="M113.877,289.862l2.471-5.008l-3.146-1.552c0.203-1.091,0.243-2.189,0.135-3.268l3.404-1.155
				l-1.794-5.289l-3.483,1.182c-0.579-0.876-1.281-1.675-2.096-2.377l1.632-3.307l-5.008-2.471l-1.605,3.253
				c-1.073-0.247-2.158-0.341-3.229-0.282l-1.141-3.364l-5.288,1.794l1.088,3.207c-0.979,0.586-1.874,1.32-2.656,2.188l-2.935-1.448
				l-2.471,5.008l2.769,1.366c-0.306,1.209-0.403,2.437-0.318,3.644l-2.843,0.965l1.794,5.288l2.765-0.938
				c0.655,1.058,1.482,2.017,2.469,2.832l-1.286,2.608l5.008,2.471l1.313-2.662c1.228,0.256,2.469,0.311,3.683,0.171l0.979,2.884
				l5.288-1.794l-1.032-3.04c0.953-0.65,1.817-1.445,2.553-2.378L113.877,289.862z M106.32,284.807
				c-0.266,0.334-0.569,0.625-0.894,0.886c-0.928,0.748-2.061,1.18-3.243,1.263c-0.345,0.024-0.69,0.02-1.038-0.019
				c-0.653-0.072-1.306-0.236-1.93-0.544c-0.564-0.278-1.042-0.654-1.469-1.071c-0.231-0.226-0.44-0.465-0.628-0.723
				c-0.754-1.032-1.157-2.28-1.126-3.561c0.008-0.355,0.054-0.708,0.13-1.062c0.099-0.462,0.235-0.92,0.453-1.363
				c0.308-0.624,0.727-1.151,1.201-1.606c0.32-0.307,0.662-0.582,1.036-0.805c0.859-0.512,1.839-0.778,2.843-0.802
				c0.507-0.012,1.017,0.023,1.523,0.149c0.398,0.099,0.793,0.235,1.176,0.424c0.443,0.219,0.83,0.499,1.189,0.805
				c0.416,0.355,0.769,0.763,1.063,1.208c0.503,0.761,0.832,1.62,0.939,2.525c0.058,0.494,0.035,0.997-0.038,1.499
				c-0.085,0.591-0.235,1.18-0.514,1.744C106.807,284.138,106.576,284.486,106.32,284.807z"/>
			<path style="fill:#352789;" d="M409.533,290.403l2.471-5.008l-3.147-1.552c0.203-1.091,0.243-2.189,0.135-3.268l3.404-1.155
				l-1.794-5.288l-3.483,1.182c-0.579-0.876-1.281-1.675-2.096-2.377l1.632-3.307l-5.008-2.471l-1.605,3.253
				c-1.073-0.247-2.158-0.341-3.229-0.282l-1.141-3.363l-5.288,1.794l1.088,3.207c-0.979,0.586-1.874,1.319-2.656,2.188
				l-2.935-1.448l-2.471,5.008l2.769,1.366c-0.306,1.209-0.403,2.437-0.318,3.644l-2.843,0.965l1.794,5.288l2.764-0.938
				c0.655,1.058,1.482,2.017,2.47,2.832l-1.286,2.608l5.008,2.471l1.313-2.662c1.228,0.256,2.469,0.311,3.683,0.171l0.979,2.884
				l5.288-1.794l-1.031-3.04c0.953-0.65,1.817-1.445,2.553-2.378L409.533,290.403z M401.976,285.348
				c-0.266,0.334-0.569,0.625-0.894,0.886c-0.928,0.748-2.061,1.181-3.243,1.263c-0.345,0.024-0.69,0.02-1.038-0.019
				c-0.653-0.072-1.306-0.236-1.93-0.543c-0.564-0.278-1.042-0.654-1.469-1.071c-0.231-0.226-0.44-0.465-0.628-0.723
				c-0.754-1.032-1.157-2.28-1.126-3.561c0.009-0.355,0.054-0.708,0.13-1.062c0.099-0.462,0.235-0.92,0.453-1.363
				c0.308-0.624,0.726-1.151,1.201-1.606c0.32-0.307,0.662-0.582,1.036-0.805c0.859-0.512,1.839-0.778,2.843-0.802
				c0.507-0.012,1.017,0.023,1.523,0.149c0.398,0.099,0.793,0.235,1.176,0.424c0.443,0.218,0.83,0.499,1.189,0.805
				c0.416,0.355,0.769,0.762,1.063,1.207c0.504,0.761,0.833,1.62,0.939,2.525c0.058,0.494,0.035,0.996-0.038,1.499
				c-0.085,0.591-0.236,1.18-0.514,1.744C402.462,284.679,402.232,285.027,401.976,285.348z"/>
			<path style="fill:#00CCFF;" d="M390.779,336.068l2.471-5.008l-3.147-1.552c0.203-1.091,0.243-2.189,0.135-3.268l3.404-1.155
				l-1.794-5.289l-3.483,1.182c-0.579-0.876-1.281-1.675-2.096-2.377l1.632-3.307l-5.008-2.471l-1.605,3.253
				c-1.073-0.247-2.158-0.341-3.229-0.282l-1.141-3.364l-5.288,1.794l1.088,3.207c-0.979,0.586-1.875,1.32-2.656,2.188l-2.935-1.448
				l-2.471,5.008l2.769,1.366c-0.307,1.209-0.403,2.437-0.318,3.644l-2.843,0.965l1.794,5.288l2.764-0.938
				c0.654,1.058,1.482,2.017,2.469,2.832l-1.287,2.608l5.008,2.471l1.313-2.662c1.228,0.256,2.469,0.311,3.683,0.171l0.979,2.884
				l5.288-1.794l-1.032-3.04c0.953-0.65,1.817-1.445,2.553-2.378L390.779,336.068z M383.222,331.012
				c-0.266,0.334-0.569,0.625-0.894,0.886c-0.928,0.748-2.061,1.18-3.243,1.263c-0.345,0.024-0.69,0.02-1.038-0.019
				c-0.653-0.072-1.306-0.236-1.93-0.544c-0.564-0.278-1.042-0.654-1.469-1.071c-0.231-0.226-0.44-0.465-0.628-0.723
				c-0.754-1.032-1.157-2.28-1.126-3.561c0.009-0.355,0.054-0.708,0.13-1.062c0.099-0.462,0.235-0.92,0.453-1.363
				c0.308-0.624,0.726-1.151,1.201-1.606c0.32-0.307,0.662-0.582,1.036-0.805c0.859-0.512,1.839-0.778,2.843-0.802
				c0.507-0.012,1.017,0.023,1.523,0.149c0.398,0.099,0.793,0.235,1.176,0.424c0.443,0.218,0.83,0.499,1.189,0.805
				c0.416,0.355,0.769,0.762,1.063,1.208c0.503,0.761,0.833,1.62,0.939,2.525c0.058,0.494,0.035,0.997-0.038,1.499
				c-0.085,0.591-0.235,1.18-0.514,1.744C383.708,330.343,383.478,330.691,383.222,331.012z"/>
			<path style="fill:#352789;" d="M269.659,175.482l2.471-5.008l-3.147-1.552c0.203-1.091,0.243-2.189,0.135-3.268l3.404-1.155
				l-1.794-5.288l-3.483,1.182c-0.579-0.876-1.281-1.675-2.096-2.377l1.632-3.307l-5.008-2.471l-1.605,3.253
				c-1.073-0.247-2.158-0.341-3.229-0.282l-1.141-3.364l-5.288,1.794l1.088,3.207c-0.979,0.586-1.874,1.32-2.656,2.188l-2.935-1.448
				l-2.471,5.008l2.769,1.366c-0.306,1.209-0.403,2.437-0.318,3.644l-2.843,0.965l1.794,5.288l2.764-0.938
				c0.654,1.058,1.482,2.017,2.469,2.832l-1.287,2.608l5.008,2.471l1.313-2.662c1.228,0.256,2.469,0.311,3.683,0.171l0.979,2.884
				l5.288-1.794l-1.031-3.04c0.953-0.65,1.817-1.445,2.553-2.378L269.659,175.482z M262.102,170.427
				c-0.266,0.334-0.569,0.625-0.894,0.886c-0.928,0.748-2.061,1.181-3.243,1.263c-0.345,0.024-0.69,0.02-1.038-0.019
				c-0.653-0.072-1.306-0.236-1.93-0.543c-0.564-0.278-1.042-0.654-1.469-1.071c-0.231-0.226-0.44-0.465-0.628-0.723
				c-0.754-1.032-1.157-2.28-1.126-3.561c0.009-0.355,0.054-0.709,0.13-1.062c0.099-0.462,0.235-0.92,0.453-1.363
				c0.308-0.624,0.726-1.151,1.201-1.606c0.32-0.307,0.662-0.582,1.036-0.805c0.859-0.512,1.839-0.778,2.843-0.802
				c0.507-0.012,1.017,0.023,1.523,0.149c0.398,0.099,0.793,0.235,1.176,0.424c0.443,0.218,0.83,0.499,1.189,0.805
				c0.416,0.355,0.769,0.762,1.063,1.208c0.503,0.761,0.833,1.62,0.939,2.525c0.058,0.494,0.035,0.997-0.038,1.499
				c-0.085,0.591-0.236,1.179-0.514,1.744C262.588,169.758,262.358,170.106,262.102,170.427z"/>
			<path style="fill:#403699;" d="M362.733,360.153H137.267c-3.839,0-6.952-3.112-6.952-6.952v-143.01
				c0-3.839,3.112-6.952,6.952-6.952h225.466c3.839,0,6.952,3.112,6.952,6.952v143.01
				C369.684,357.041,366.572,360.153,362.733,360.153z"/>
			<path style="fill:#1A0763;" d="M357.324,352.816H142.676c-2.052,0-3.716-1.664-3.716-3.716V213.91
				c0-2.052,1.664-3.716,3.716-3.716h214.648c2.052,0,3.716,1.664,3.716,3.716V349.1
				C361.04,351.152,359.376,352.816,357.324,352.816z"/>
			<rect x="224.642" y="359.66" style="fill:#403699;" width="50.716" height="31.167"/>
			<rect x="224.607" y="360.188" style="fill:#2A227C;" width="50.689" height="11.097"/>
			<rect x="212.724" y="387.63" style="fill:#403699;" width="74.552" height="4.558"/>
			<rect x="143.831" y="214.74" style="fill:#352789;" width="212.186" height="6.15"/>
			<rect x="146.817" y="216.536" style="fill:#00CCFF;" width="10.409" height="2.526"/>
			<rect x="162.421" y="238.027" style="fill:#00CCFF;" width="182.427" height="2.684"/>
			<rect x="191.665" y="270.303" style="fill:#00CCFF;" width="154.416" height="2.306"/>
			<rect x="191.665" y="320.737" style="fill:#00CCFF;" width="154.416" height="2.306"/>
			<rect x="191.665" y="280.643" style="fill:#00CCFF;" width="154.416" height="2.306"/>
			<rect x="162.421" y="248.019" style="fill:#EA47E3;" width="59.959" height="2.494"/>
			<rect x="162.421" y="331.557" style="fill:#00CCFF;" width="59.959" height="2.494"/>
			<rect x="162.421" y="309.573" style="fill:#EA47E3;" width="59.959" height="2.494"/>
			<rect x="162.421" y="258.243" style="fill:#EA47E3;" width="59.959" height="2.494"/>
			<rect x="333.552" y="258.243" style="fill:#EA47E3;" width="11.217" height="2.494"/>
			<rect x="234.698" y="248.019" style="fill:#00CCFF;" width="59.959" height="2.494"/>
			<rect x="235.713" y="299.765" style="fill:#00CCFF;" width="59.959" height="2.494"/>
			<rect x="235.713" y="331.895" style="fill:#00CCFF;" width="59.959" height="2.494"/>
			<rect x="191.806" y="290.646" style="fill:#EA47E3;" width="59.959" height="2.494"/>
			<g>
				<rect x="85.157" y="170.81" style="fill:#EA47E3;" width="11.217" height="2.494"/>
				<rect x="102.866" y="170.787" style="fill:#352789;" width="65.635" height="2.516"/>
				<rect x="86.132" y="148.132" style="fill:#352789;" width="65.635" height="2.517"/>
				<rect x="86.132" y="155.083" style="fill:#352789;" width="65.635" height="2.517"/>
				<rect x="173.116" y="170.782" style="fill:#352789;" width="11.159" height="2.521"/>
				<rect x="85.157" y="178.381" style="fill:#EA47E3;" width="11.217" height="2.494"/>
				<rect x="102.866" y="178.358" style="fill:#352789;" width="65.635" height="2.517"/>
				<rect x="85.157" y="185.952" style="fill:#EA47E3;" width="11.217" height="2.494"/>
				<rect x="102.866" y="185.929" style="fill:#352789;" width="41.42" height="2.517"/>
				<rect x="85.157" y="193.524" style="fill:#EA47E3;" width="11.217" height="2.494"/>
				<rect x="102.866" y="193.501" style="fill:#352789;" width="41.42" height="2.516"/>
				<rect x="78.543" y="141.586" style="fill:none;stroke:#EA47E3;stroke-miterlimit:10;" width="113.147" height="22.381"/>
				<polyline style="fill:none;stroke:#EA47E3;stroke-miterlimit:10;" points="166.37,137.316 172.274,137.316 172.274,160.455 
					166.529,160.455 				"/>
				<polyline style="fill:none;stroke:#00CCFF;stroke-miterlimit:10;" points="78.368,196.65 72.463,196.65 72.463,173.511 
					78.208,173.511 				"/>
			</g>
			<rect x="330.026" y="373.958" style="fill:#352789;" width="65.635" height="2.516"/>
			<rect x="330.026" y="380.909" style="fill:#352789;" width="65.635" height="2.516"/>
			<rect x="355.413" y="155.745" style="fill:#352789;" width="41.42" height="2.516"/>
			<rect x="355.413" y="163.317" style="fill:#352789;" width="41.42" height="2.517"/>
			<rect x="382.118" y="173.975" style="fill:#352789;" width="14.715" height="2.517"/>
			<rect x="382.118" y="181.546" style="fill:#352789;" width="14.715" height="2.516"/>
			<rect x="382.118" y="189.69" style="fill:#352789;" width="14.715" height="2.516"/>
			<rect x="403.141" y="189.69" style="fill:#352789;" width="14.715" height="2.516"/>
			<rect x="382.118" y="197.261" style="fill:#352789;" width="14.715" height="2.517"/>
			<rect x="382.118" y="205.404" style="fill:#352789;" width="14.715" height="2.517"/>
			<rect x="402.435" y="205.404" style="fill:#352789;" width="14.715" height="2.517"/>
			<rect x="382.118" y="212.976" style="fill:#352789;" width="14.715" height="2.516"/>
			<rect x="329.666" y="92.946" style="fill:#00CCFF;" width="41.42" height="2.517"/>
			<rect x="329.666" y="100.518" style="fill:#00CCFF;" width="41.42" height="2.517"/>
			<rect x="322.437" y="367.412" style="fill:none;stroke:#EA47E3;stroke-miterlimit:10;" width="113.147" height="22.381"/>
			
				<line style="fill:none;stroke:#352789;stroke-width:2;stroke-linecap:round;stroke-miterlimit:10;" x1="62.38" y1="401.432" x2="437.62" y2="401.432"/>
			
				<line style="fill:none;stroke:#352789;stroke-width:2;stroke-linecap:round;stroke-miterlimit:10;" x1="76.202" y1="412.606" x2="423.798" y2="412.606"/>
			<rect x="321.5" y="87.394" style="fill:none;stroke:#00CCFF;stroke-miterlimit:10;" width="86.633" height="20.951"/>
			<rect x="356.615" y="174.002" style="fill:none;stroke:#00CCFF;stroke-miterlimit:10;" width="19.498" height="18.088"/>
			<polyline style="fill:none;stroke:#00CCFF;stroke-miterlimit:10;" points="361.237,181.772 365.122,187.294 371.871,179.113 			
				"/>
			<polygon style="opacity:0.1;fill:#FFFFFF;" points="356.486,348.071 142.481,348.071 356.486,213.296 			"/>
			<rect x="76.68" y="225.187" style="opacity:0.1;fill:#FFFFFF;" width="72.343" height="26.531"/>
			<rect x="334.563" y="234.271" style="opacity:0.1;fill:#FFFFFF;" width="72.343" height="30.435"/>
			<rect x="284.076" y="129.709" style="opacity:0.1;fill:#FFFFFF;" width="88.158" height="28.579"/>
			<rect x="165.23" y="338.627" style="opacity:0.1;fill:#FFFFFF;" width="72.343" height="38.728"/>
		</g>
	</g>
</g>
<g id="DESIGNED_BY_FREEPIK">
	<g>
		<g id="XMLID_2_">
			<g id="XMLID_1043_">
				<path id="XMLID_1051_" style="fill:#F8FAFB;" d="M260.104,465.465c-0.432,0.443-0.803,0.931-1.108,1.453l-0.465-0.241
					c-0.067-0.298-0.349-0.503-0.659-0.466c-0.331,0.039-0.568,0.339-0.529,0.67c0.039,0.331,0.339,0.568,0.67,0.529
					c0.066-0.008,0.127-0.026,0.184-0.052l0.451,0.234c-0.251,0.554-0.433,1.139-0.539,1.744l0.747,0.132
					c0.23-1.306,0.85-2.507,1.792-3.473L260.104,465.465z"/>
				<path id="XMLID_1050_" style="fill:#F8FAFB;" d="M265.592,463.163c-0.171,0-0.341,0.006-0.51,0.017l-0.074-0.626
					c0.188-0.149,0.296-0.389,0.266-0.645c-0.046-0.393-0.402-0.674-0.795-0.628c-0.393,0.046-0.674,0.402-0.628,0.795
					c0.03,0.254,0.189,0.461,0.404,0.564l0.074,0.624c-0.714,0.116-1.403,0.332-2.06,0.646l0.327,0.684
					c0.934-0.447,1.942-0.673,2.995-0.673c0.496,0,0.993,0.053,1.475,0.158l0.161-0.741
					C266.692,463.222,266.142,463.163,265.592,463.163z"/>
				<path id="XMLID_1049_" style="fill:#F8FAFB;" d="M272.194,465.711c0.331-0.04,0.566-0.341,0.526-0.672
					c-0.04-0.331-0.341-0.566-0.672-0.526c-0.309,0.038-0.535,0.304-0.53,0.609l-0.416,0.363c-0.418-0.43-0.889-0.813-1.408-1.139
					l-0.404,0.641c1.134,0.715,2.021,1.726,2.563,2.925l0.69-0.313c-0.251-0.554-0.567-1.072-0.942-1.545l0.402-0.351
					C272.065,465.716,272.129,465.719,272.194,465.711z"/>
				<path id="XMLID_1048_" style="fill:#F8FAFB;" d="M265.044,473.372c-0.386,0.023-0.775,0.035-1.157,0.035
					c-0.88,0-1.733-0.061-2.478-0.179c-0.39-0.062-0.846-0.155-1.27-0.292c1.046,1.861,3.069,3.125,5.388,3.125
					c2.855,0,5.262-1.916,5.95-4.504c-0.682,0.449-1.505,0.825-2.459,1.123C267.839,473.047,266.463,473.286,265.044,473.372z"/>
				<path id="XMLID_1044_" style="fill:#F8FAFB;" d="M265.592,464.68c-3.352,0-6.08,2.666-6.08,5.943
					c0,0.426,0.046,0.849,0.137,1.261c0.673,0.483,2.706,0.89,5.348,0.731c2.879-0.173,5.297-0.957,6.672-2.159
					c-0.006-0.195-0.021-0.39-0.045-0.582C271.244,466.913,268.65,464.68,265.592,464.68z M263.432,471.194
					c-1.02,0-1.85-0.83-1.85-1.85c0-1.02,0.83-1.85,1.85-1.85c1.02,0,1.85,0.83,1.85,1.85
					C265.282,470.365,264.452,471.194,263.432,471.194z M268.17,470.286c-0.75,0-1.36-0.61-1.36-1.36s0.61-1.361,1.36-1.361
					c0.75,0,1.361,0.61,1.361,1.361S268.92,470.286,268.17,470.286z"/>
			</g>
			<path id="XMLID_1041_" style="fill:#F8FAFB;" d="M281.595,466.547c-0.295-0.116-0.805-0.309-1.382-0.237
				c-0.551,0.069-0.844,0.341-0.844,1.007v0.866h2.228v1.717h-2.228v5.455h-1.932v-5.455h-1.34v-1.717h1.34v-0.888
				c0-1.68,0.896-2.783,2.568-2.783c0.643,0,1.157,0.122,1.59,0.308L281.595,466.547z"/>
			<path id="XMLID_1039_" style="fill:#F8FAFB;" d="M286.298,469.879c-0.177-0.03-0.358-0.046-0.526-0.046
				c-0.896,0-1.51,0.548-1.51,1.614v3.908h-1.932v-7.172h1.873v0.785c0.451-0.673,1.14-0.977,2.021-0.977
				c0.414,0,0.848,0.128,1.094,0.337L286.298,469.879z"/>
			<path id="XMLID_88_" style="fill:#F8FAFB;" d="M293.965,471.757c0,0.222-0.015,0.489-0.037,0.651h-5.085
				c0.207,1.036,0.933,1.488,1.843,1.488c0.622,0,1.295-0.252,1.813-0.688l1.133,1.243c-0.814,0.748-1.85,1.088-3.057,1.088
				c-2.198,0-3.723-1.495-3.723-3.753c0-2.258,1.48-3.797,3.627-3.797C292.544,467.99,293.958,469.522,293.965,471.757z
				 M288.851,471.091h3.175c-0.177-0.918-0.733-1.436-1.562-1.436C289.554,469.655,289.021,470.203,288.851,471.091z"/>
			<path id="XMLID_85_" style="fill:#F8FAFB;" d="M301.618,471.757c0,0.222-0.015,0.489-0.037,0.651h-5.085
				c0.207,1.036,0.933,1.488,1.843,1.488c0.622,0,1.295-0.252,1.814-0.688l1.132,1.243c-0.814,0.748-1.85,1.088-3.057,1.088
				c-2.198,0-3.723-1.495-3.723-3.753c0-2.258,1.48-3.797,3.627-3.797C300.197,467.99,301.611,469.522,301.618,471.757z
				 M296.504,471.091h3.175c-0.178-0.918-0.733-1.436-1.562-1.436C297.207,469.655,296.674,470.203,296.504,471.091z"/>
			<path id="XMLID_62_" style="fill:#F8FAFB;" d="M309.964,471.764c0,2.154-1.495,3.775-3.471,3.775
				c-0.962,0-1.643-0.378-2.109-0.933v3.708h-1.924v-10.133h1.887v0.792c0.466-0.585,1.155-0.984,2.139-0.984
				C308.469,467.99,309.964,469.61,309.964,471.764z M304.287,471.764c0,1.132,0.748,1.976,1.843,1.976
				c1.14,0,1.85-0.881,1.85-1.976c0-1.095-0.71-1.976-1.85-1.976C305.035,469.788,304.287,470.632,304.287,471.764z"/>
			<path id="XMLID_9_" style="fill:#F8FAFB;" d="M313.068,465.836c0,0.696-0.54,1.229-1.236,1.229c-0.696,0-1.229-0.533-1.229-1.229
				c0-0.696,0.533-1.243,1.229-1.243C312.527,464.592,313.068,465.14,313.068,465.836z M312.809,475.354h-1.932v-7.172h1.932
				V475.354z"/>
			<path id="XMLID_3_" style="fill:#F8FAFB;" d="M316.032,470.736l2.701-2.554h2.368l-3.479,3.375l3.501,3.797h-2.376l-2.716-2.901
				v2.901H314.1v-10.658h1.932V470.736z"/>
		</g>
		<g>
			<path style="fill:#F8FAFB;" d="M184.412,475.289v-1.055c-0.527,0.718-1.391,1.23-2.387,1.23c-1.846,0-3.149-1.406-3.149-3.706
				c0-2.256,1.289-3.721,3.149-3.721c0.952,0,1.816,0.469,2.387,1.245v-3.765h1.099v9.77H184.412z M184.412,473.37v-3.208
				c-0.395-0.615-1.245-1.143-2.124-1.143c-1.421,0-2.27,1.172-2.27,2.739c0,1.567,0.85,2.724,2.27,2.724
				C183.168,474.483,184.017,473.986,184.412,473.37z"/>
			<path style="fill:#F8FAFB;" d="M186.932,471.744c0-2.051,1.465-3.706,3.486-3.706c2.139,0,3.398,1.67,3.398,3.794v0.279h-5.727
				c0.088,1.333,1.025,2.446,2.549,2.446c0.805,0,1.626-0.322,2.182-0.894l0.527,0.718c-0.703,0.703-1.655,1.084-2.812,1.084
				C188.44,475.465,186.932,473.956,186.932,471.744z M190.403,468.947c-1.509,0-2.256,1.274-2.314,2.358h4.643
				C192.718,470.25,192.015,468.947,190.403,468.947z"/>
			<path style="fill:#F8FAFB;" d="M194.607,474.351l0.571-0.791c0.469,0.542,1.362,1.011,2.329,1.011c1.084,0,1.67-0.513,1.67-1.216
				c0-1.714-4.38-0.659-4.38-3.281c0-1.098,0.952-2.036,2.636-2.036c1.201,0,2.051,0.454,2.622,1.026l-0.513,0.762
				c-0.424-0.513-1.201-0.894-2.109-0.894c-0.967,0-1.567,0.483-1.567,1.113c0,1.552,4.38,0.527,4.38,3.281
				c0,1.187-0.952,2.138-2.783,2.138C196.306,475.465,195.325,475.113,194.607,474.351z"/>
			<path style="fill:#F8FAFB;" d="M201.477,466.471c0-0.41,0.337-0.747,0.732-0.747c0.41,0,0.747,0.337,0.747,0.747
				c0,0.41-0.337,0.732-0.747,0.732C201.814,467.203,201.477,466.881,201.477,466.471z M201.667,475.289v-7.075h1.099v7.075H201.667
				z"/>
			<path style="fill:#F8FAFB;" d="M204.582,477.105l0.556-0.82c0.586,0.703,1.289,0.967,2.3,0.967c1.172,0,2.27-0.571,2.27-2.124
				v-1.011c-0.513,0.718-1.377,1.26-2.373,1.26c-1.845,0-3.149-1.377-3.149-3.662c0-2.27,1.289-3.677,3.149-3.677
				c0.952,0,1.802,0.469,2.373,1.245v-1.069h1.098v6.87c0,2.344-1.641,3.076-3.369,3.076
				C206.237,478.16,205.417,477.926,204.582,477.105z M209.709,473.253v-3.091c-0.381-0.615-1.23-1.143-2.109-1.143
				c-1.421,0-2.27,1.128-2.27,2.695c0,1.553,0.849,2.695,2.27,2.695C208.478,474.41,209.328,473.868,209.709,473.253z"/>
			<path style="fill:#F8FAFB;" d="M217.413,475.289v-4.629c0-1.245-0.63-1.641-1.582-1.641c-0.865,0-1.685,0.527-2.095,1.099v5.17
				h-1.099v-7.075h1.099v1.025c0.498-0.586,1.464-1.201,2.519-1.201c1.48,0,2.256,0.747,2.256,2.285v4.966H217.413z"/>
			<path style="fill:#F8FAFB;" d="M219.932,471.744c0-2.051,1.465-3.706,3.486-3.706c2.139,0,3.398,1.67,3.398,3.794v0.279h-5.727
				c0.088,1.333,1.025,2.446,2.549,2.446c0.806,0,1.626-0.322,2.183-0.894l0.527,0.718c-0.703,0.703-1.655,1.084-2.812,1.084
				C221.441,475.465,219.932,473.956,219.932,471.744z M223.404,468.947c-1.509,0-2.256,1.274-2.314,2.358h4.643
				C225.718,470.25,225.015,468.947,223.404,468.947z"/>
			<path style="fill:#F8FAFB;" d="M233.35,475.289v-1.055c-0.527,0.718-1.392,1.23-2.388,1.23c-1.846,0-3.149-1.406-3.149-3.706
				c0-2.256,1.289-3.721,3.149-3.721c0.952,0,1.817,0.469,2.388,1.245v-3.765h1.098v9.77H233.35z M233.35,473.37v-3.208
				c-0.396-0.615-1.245-1.143-2.124-1.143c-1.421,0-2.27,1.172-2.27,2.739c0,1.567,0.849,2.724,2.27,2.724
				C232.105,474.483,232.954,473.986,233.35,473.37z"/>
			<path style="fill:#F8FAFB;" d="M239.692,475.289v-9.77h1.098v3.765c0.572-0.776,1.421-1.245,2.388-1.245
				c1.845,0,3.149,1.465,3.149,3.721c0,2.299-1.304,3.706-3.149,3.706c-0.996,0-1.86-0.513-2.388-1.23v1.055H239.692z
				 M242.9,474.483c1.436,0,2.285-1.157,2.285-2.724c0-1.568-0.85-2.739-2.285-2.739c-0.864,0-1.728,0.527-2.109,1.143v3.208
				C241.171,473.986,242.036,474.483,242.9,474.483z"/>
			<path style="fill:#F8FAFB;" d="M247.528,477.061c0.161,0.073,0.425,0.117,0.601,0.117c0.483,0,0.805-0.161,1.055-0.747
				l0.469-1.069l-2.959-7.148h1.187l2.358,5.8l2.344-5.8h1.201l-3.545,8.51c-0.425,1.025-1.143,1.421-2.08,1.435
				c-0.234,0-0.601-0.044-0.805-0.103L247.528,477.061z"/>
		</g>
	</g>
</g>
</svg>
